<?xml version="1.0" standalone="no"?>
<!DOCTYPE svg PUBLIC "-//W3C//DTD SVG 20010904//EN"
 "http://www.w3.org/TR/2001/REC-SVG-20010904/DTD/svg10.dtd">
<svg version="1.0" xmlns="http://www.w3.org/2000/svg"
 width="112.000000pt" height="117.000000pt" viewBox="0 0 112.000000 117.000000"
 preserveAspectRatio="xMidYMid meet">

<g transform="translate(0.000000,117.000000) scale(0.100000,-0.100000)"
fill="#000000" stroke="none">
<path d="M510 1154 c-233 -41 -283 -72 -350 -219 -23 -49 -31 -90 -44 -210 -9
-83 -23 -177 -32 -210 -28 -108 -28 -106 13 -151 21 -23 51 -58 66 -78 31 -40
174 -159 220 -183 26 -13 39 -13 87 -3 68 14 97 7 203 -54 65 -37 69 -38 87
-21 11 10 20 24 20 32 0 7 4 13 10 13 5 0 21 21 36 46 26 44 26 48 10 60 -10
7 -17 21 -16 31 5 40 3 40 -118 35 -93 -4 -131 -1 -178 13 -81 23 -94 37 -94
99 0 42 6 60 35 101 62 91 74 102 85 85 13 -20 7 -35 -13 -35 -24 0 -29 -11
-13 -24 12 -10 17 -8 26 9 7 14 17 19 27 16 9 -4 27 1 40 9 31 21 28 64 -5 81
-12 6 -25 13 -27 16 -9 8 76 212 94 226 11 10 42 13 108 10 80 -3 96 -7 117
-27 37 -35 66 -113 77 -209 5 -48 15 -123 21 -168 13 -97 6 -114 -60 -149 -26
-13 -40 -24 -32 -25 8 0 40 16 71 35 l56 36 18 153 c19 156 16 219 -16 338
-12 45 -82 151 -127 192 -19 17 -43 39 -53 49 -10 9 -22 17 -25 17 -4 0 -12 7
-18 15 -22 29 -230 62 -306 49z m-34 -118 c3 -8 4 -22 2 -31 -2 -12 -7 -7 -15
14 -6 18 -7 31 -2 31 5 0 12 -6 15 -14z m102 -805 l74 -17 -37 -17 c-69 -33
-127 -15 -148 46 -6 15 -3 17 16 11 12 -4 55 -14 95 -23z"/>
<path d="M905 601 c-25 -5 -31 -12 -33 -37 -4 -41 21 -68 48 -54 30 16 42 46
25 60 -7 6 -11 18 -8 26 3 8 4 13 2 13 -2 -1 -17 -4 -34 -8z"/>
<path d="M715 431 c-26 -6 -22 -8 29 -14 33 -4 63 -4 68 1 6 6 0 8 -15 5 -14
-3 -28 0 -31 6 -4 6 -10 10 -14 10 -4 -1 -20 -4 -37 -8z"/>
<path d="M868 263 c7 -3 16 -2 19 1 4 3 -2 6 -13 5 -11 0 -14 -3 -6 -6z"/>
</g>
</svg>
